<?xml version="1.0" encoding="iso-8859-1"?>
<!-- Uploaded to: SVG Repo, www.svgrepo.com, Generator: SVG Repo Mixer Tools -->
<svg version="1.1" id="Layer_1" xmlns="http://www.w3.org/2000/svg" xmlns:xlink="http://www.w3.org/1999/xlink" 
	 viewBox="0 0 512 512" xml:space="preserve">
<path style="fill:#458FDE;" d="M504.026,192.375C475.738,81.771,375.42,0,256,0C114.616,0,0,114.616,0,256
	c0,119.42,81.771,219.738,192.375,248.026L504.026,192.375z"/>
<path style="fill:#4D68B5;" d="M512,256c0-21.965-2.77-43.282-7.974-63.625l-75.504-75.506L83.478,395.13l108.896,108.896
	C212.718,509.23,234.035,512,256,512C397.385,512,512,397.385,512,256z"/>
<polygon style="fill:#CCCCCC;" points="428.522,161.391 233.739,139.13 256,395.13 428.522,395.13 "/>
<polygon style="fill:#E5E5E5;" points="83.478,161.391 83.478,395.13 256,395.13 256,139.13 "/>
<polygon style="fill:#F2F2F2;" points="256,183.652 211.478,278.261 256,372.87 406.261,372.87 406.261,183.652 "/>
<rect x="105.739" y="183.652" style="fill:#FFFFFF;" width="150.261" height="189.217"/>
<polygon style="fill:#FF7452;" points="384,116.87 328.348,139.13 384,161.391 428.522,161.391 428.522,116.87 "/>
<polygon style="fill:#FF9075;" points="339.478,116.87 283.826,139.13 339.478,161.391 384,161.391 384,116.87 "/>
<polygon style="fill:#999999;" points="339.478,116.87 256,116.87 233.739,139.13 256,161.391 339.478,161.391 "/>
<rect x="83.478" y="116.87" style="fill:#B2B2B2;" width="172.522" height="44.522"/>
<polygon style="fill:#458FDE;" points="180.87,205.913 233.739,205.913 233.739,228.174 157.372,250.435 "/>
<polygon style="fill:#6FAEE8;" points="180.87,205.913 128,205.913 128,228.174 180.87,250.435 "/>
<polygon style="fill:#4A75C3;" points="233.739,350.609 192,350.609 192,267.13 180.87,267.13 158.609,247.652 180.87,228.174 
	233.739,228.174 "/>
<polygon style="fill:#458FDE;" points="128,350.609 169.739,350.609 169.739,267.13 180.87,267.13 180.87,228.174 128,228.174 "/>
<rect x="278.261" y="250.435" style="fill:#999999;" width="105.739" height="22.261"/>
<rect x="278.261" y="328.348" style="fill:#FF9075;" width="61.217" height="22.261"/>
<rect x="361.739" y="328.348" style="fill:#FF7452;" width="22.261" height="22.261"/>
<rect x="278.261" y="205.913" style="fill:#999999;" width="105.739" height="22.261"/>
</svg>